<?xml version="1.0" encoding="utf-8"?>
<!-- Generator: Adobe Illustrator 24.0.0, SVG Export Plug-In . SVG Version: 6.00 Build 0)  -->
<svg version="1.1" id="Calque_1" xmlns="http://www.w3.org/2000/svg" xmlns:xlink="http://www.w3.org/1999/xlink" x="0px" y="0px"
	 viewBox="0 0 228 259" style="enable-background:new 0 0 228 259;" xml:space="preserve">
<style type="text/css">
	.st0{fill:none;stroke:#FBBB21;stroke-width:2.1565;stroke-miterlimit:10;}
	.st1{fill:none;stroke:#FBBB21;stroke-width:3.8401;stroke-miterlimit:10;}
	.st2{fill-rule:evenodd;clip-rule:evenodd;fill:#61BFE6;}
	.st3{fill-rule:evenodd;clip-rule:evenodd;fill:#FBBA00;}
</style>
<circle class="st0" cx="113.65" cy="126.1" r="94.36"/>
<circle class="st1" cx="113.79" cy="125.79" r="108.97"/>
<path class="st2" d="M216.24,22.89c-6.29-9.53-13.46,6.39-13.46,6.39S222.54,32.42,216.24,22.89"/>
<path class="st2" d="M205.36,48.36c8.23-2.52,21.77,9.23,21.15-2.22C225.59,29.03,197.26,50.84,205.36,48.36"/>
<path class="st2" d="M187.43,2.07c-16.21-1.5-7.8,22.32-7.8,22.32C187.93,22.42,203.64,3.56,187.43,2.07"/>
<path class="st3" d="M13.03,238.03c6.52,9.48,13.44-6.69,13.44-6.69S6.51,228.55,13.03,238.03"/>
<path class="st3" d="M23.52,212.15c-8.24,2.69-22.1-8.9-21.27,2.63C3.5,232.01,31.62,209.51,23.52,212.15"/>
<path class="st3" d="M42.45,258.47c16.36,1.2,7.44-22.64,7.44-22.64C41.56,237.97,26.08,257.26,42.45,258.47"/>
</svg>
