<?xml version="1.0" encoding="utf-8"?>
<!-- Generator: Adobe Illustrator 24.0.0, SVG Export Plug-In . SVG Version: 6.00 Build 0)  -->
<svg version="1.1" id="Calque_1" xmlns="http://www.w3.org/2000/svg" xmlns:xlink="http://www.w3.org/1999/xlink" x="0px" y="0px"
	 viewBox="0 0 67.37 71.42" style="enable-background:new 0 0 67.37 71.42;" xml:space="preserve">
<g transform="translate(0,-952.36218)">
	<path d="M4.99,1018.64c-6.65-6.86-6.65-17.95,0-24.81l33.37-34.46c6.65-6.86,17.38-6.86,24.03,0s6.65,17.95,0,24.81l-33.37,34.46
		C22.37,1025.5,11.64,1025.5,4.99,1018.64z M25.7,977.96l18.68,19.3l15.36-15.86c5.21-5.38,5.21-13.91,0-19.3s-13.47-5.38-18.68,0
		L25.7,977.96z M50.22,982.65c-0.58-0.74-0.49-1.95,0.18-2.64l2.65-2.74c1.48-1.53,2.38-3.15,2.65-4.5c0.22-1.35,0-2.46-1.3-3.8
		c-0.72-0.7-0.72-2.04,0-2.78s1.98-0.74,2.69,0c2.02,2.09,2.78,4.78,2.34,7.24c-0.45,2.46-1.84,4.64-3.68,6.54l-2.65,2.74
		C52.33,983.57,50.89,983.53,50.22,982.65L50.22,982.65z"/>
</g>
</svg>
