<?xml version="1.0" encoding="utf-8"?>
<!-- Generator: Adobe Illustrator 24.0.0, SVG Export Plug-In . SVG Version: 6.00 Build 0)  -->
<svg version="1.1" id="Calque_1" xmlns="http://www.w3.org/2000/svg" xmlns:xlink="http://www.w3.org/1999/xlink" x="0px" y="0px"
	 viewBox="0 0 76.77 75.4" style="enable-background:new 0 0 76.77 75.4;" xml:space="preserve">
<style type="text/css">
	.st0{fill:none;stroke:#ffffff;stroke-width:2;stroke-miterlimit:10;}
</style>
<g>
	<g>
		<path class="st0" d="M38.2,42.55c10.99,0,19.98-8.99,19.98-19.98S49.19,2.59,38.2,2.59c-10.99,0-19.98,8.99-19.98,19.98
			S27.21,42.55,38.2,42.55z"/>
	</g>
	<g>
		<path class="st0" d="M74.56,70.65c-0.49-2.28-1.12-4.52-1.8-6.51c-0.92-2.58-1.99-5.1-3.21-7.39
			c-5.88-11.18-16.19-15.51-25.67-10.6c-3.69,1.9-7.68,1.9-11.28,0c-9.48-4.81-19.88-0.58-25.77,10.5
			c-1.22,2.28-2.28,4.81-3.21,7.39c-0.68,2.09-1.31,4.28-1.8,6.61c-0.19,0.68,0,1.51,0.49,2.09s1.22,0.92,1.9,0.92h67.96
			c0.78,0,1.51-0.29,1.9-0.92C74.56,72.15,74.81,71.38,74.56,70.65z"/>
	</g>
</g>
</svg>
