<?xml version="1.0" encoding="utf-8"?>
<!-- Generator: Adobe Illustrator 24.0.0, SVG Export Plug-In . SVG Version: 6.00 Build 0)  -->
<svg version="1.1" id="Calque_1" xmlns="http://www.w3.org/2000/svg" xmlns:xlink="http://www.w3.org/1999/xlink" x="0px" y="0px"
	 viewBox="0 0 77.23 68.64" style="enable-background:new 0 0 77.23 68.64;" xml:space="preserve">
<style type="text/css">
	.st0{fill:none;stroke:#ffffff;stroke-width:3;stroke-miterlimit:10;}
</style>
<path class="st0" d="M73.9,50.54L47.93,6.89c-1.86-3.43-5.39-5.39-9.21-5.39s-7.35,1.96-9.26,5.29L3.54,50.54
	c-2.01,3.33-2.01,7.5-0.05,10.83s5.44,5.44,9.46,5.44h51.69c3.97,0,7.5-2.06,9.46-5.44C76.01,58.03,76.01,53.87,73.9,50.54z
	 M42.25,52.1c0,2.06-1.57,3.58-3.58,3.58c-2.06,0-3.58-1.57-3.58-3.58v-1.22c0-2.06,1.57-3.58,3.58-3.58c2.06,0,3.67,1.57,3.58,3.58
	V52.1z M42.25,41.67c0,2.06-1.57,3.58-3.58,3.58c-2.06,0-3.58-1.57-3.58-3.58v-19.3c0-2.06,1.57-3.58,3.58-3.58
	c2.06,0,3.67,1.71,3.58,3.67V41.67z"/>
</svg>
