<?xml version="1.0" encoding="utf-8"?>
<!-- Generator: Adobe Illustrator 24.0.0, SVG Export Plug-In . SVG Version: 6.00 Build 0)  -->
<svg version="1.1" id="Calque_1" xmlns="http://www.w3.org/2000/svg" xmlns:xlink="http://www.w3.org/1999/xlink" x="0px" y="0px"
	 viewBox="0 0 72.51 85.45" style="enable-background:new 0 0 72.51 85.45;" xml:space="preserve">
<style type="text/css">
	.st0{fill:none;stroke:#ffffff;stroke-width:2;stroke-miterlimit:10;}
</style>
<g>
	<path class="st0" d="M36.64,83.69C17.68,83.69,2.3,68.31,2.3,49.35s15.38-34.29,34.34-34.29S70.98,30.44,70.98,49.4
		S55.61,83.69,36.64,83.69z M36.64,23.65c-14.24,0-25.76,11.52-25.76,25.76c0,14.24,11.52,25.76,25.76,25.76S62.4,63.65,62.4,49.41
		C62.4,35.17,50.88,23.65,36.64,23.65z"/>
	<path class="st0" d="M45.23,10.77H28.06c-2.39,0-4.29-1.9-4.29-4.29s1.96-4.29,4.29-4.29h17.17c2.39,0,4.29,1.9,4.29,4.29
		S47.56,10.77,45.23,10.77z"/>
	<path class="st0" d="M36.64,53.64c-2.39,0-4.29-1.9-4.29-4.29V36.53c0-2.39,1.9-4.29,4.29-4.29s4.29,1.9,4.29,4.29v12.88
		C40.93,51.74,39.03,53.64,36.64,53.64z"/>
</g>
</svg>
