<?xml version="1.0" encoding="utf-8"?>
<!-- Generator: Adobe Illustrator 24.0.0, SVG Export Plug-In . SVG Version: 6.00 Build 0)  -->
<svg version="1.1" id="Calque_1" xmlns="http://www.w3.org/2000/svg" xmlns:xlink="http://www.w3.org/1999/xlink" x="0px" y="0px"
	 viewBox="0 0 70.47 76.13" style="enable-background:new 0 0 70.47 76.13;" xml:space="preserve">
<style type="text/css">
	.st0{fill:none;stroke:#ffffff;stroke-width:2;stroke-miterlimit:10;}
</style>
<path class="st0" d="M57.48,9.01h-6.94v-3.8c0-1.73-1.25-3.21-2.89-3.21c-1.56,0-2.89,1.38-2.89,3.21v3.8H25.19v-3.8
	C25.19,3.48,23.94,2,22.3,2s-2.89,1.38-2.89,3.21v3.8h-6.85c-6.05,0-10.9,5.48-10.9,12.1v41.37c0,6.71,4.94,12.1,10.9,12.1h44.97
	c6.05,0,10.9-5.48,10.9-12.1V21.11C68.38,14.49,63.44,9.01,57.48,9.01z M12.56,15.33h6.94v3.8c0,1.73,1.25,3.21,2.89,3.21
	c1.6,0,2.89-1.38,2.89-3.21v-3.8h19.66v3.8c0,1.73,1.25,3.21,2.89,3.21c1.56,0,2.89-1.38,2.89-3.21v-3.8h6.81
	c2.89,0,5.2,2.57,5.2,5.78v7.41H7.35v-7.41C7.36,17.89,9.67,15.33,12.56,15.33z M57.48,68.25H12.56c-2.89,0-5.2-2.57-5.2-5.78v-27.6
	h55.33v27.6C62.69,65.69,60.38,68.25,57.48,68.25z"/>
</svg>
