<?xml version="1.0" encoding="utf-8"?>
<!-- Generator: Adobe Illustrator 24.0.0, SVG Export Plug-In . SVG Version: 6.00 Build 0)  -->
<svg version="1.1" id="Calque_1" xmlns="http://www.w3.org/2000/svg" xmlns:xlink="http://www.w3.org/1999/xlink" x="0px" y="0px"
	 viewBox="0 0 1334 750" style="enable-background:new 0 0 1334 750;" xml:space="preserve">
<style type="text/css">
	.st0{fill:none;stroke:#000000;stroke-width:2.5866;stroke-miterlimit:10;}
	.st1{fill:none;stroke:#000000;stroke-width:3.0716;stroke-miterlimit:10;}
	.st2{fill:none;stroke:#000000;stroke-width:3.6412;stroke-miterlimit:10;}
</style>
<path d="M208.04,351.8c0,28.57,23.16,51.73,51.73,51.73c28.57,0,51.73-23.16,51.73-51.73H208.04z"/>
<circle cx="290.17" cy="317.53" r="10.99"/>
<circle cx="231.97" cy="317.53" r="10.99"/>
<circle cx="689.22" cy="319.55" r="10.99"/>
<circle cx="631.02" cy="319.55" r="10.99"/>
<circle cx="1089.42" cy="319.55" r="10.99"/>
<circle cx="1031.22" cy="319.55" r="10.99"/>
<path class="st0" d="M1020.39,393.19c0-21.43,17.37-38.8,38.8-38.8s38.8,17.37,38.8,38.8"/>
<line class="st1" x1="696.49" y1="371.2" x2="622.77" y2="371.2"/>
<circle class="st2" cx="260.75" cy="344.98" r="83.75"/>
<circle class="st2" cx="660.01" cy="345.24" r="83.75"/>
<circle class="st2" cx="1059.51" cy="345.24" r="83.75"/>
</svg>
