<?xml version="1.0" encoding="utf-8"?>
<!-- Generator: Adobe Illustrator 24.0.0, SVG Export Plug-In . SVG Version: 6.00 Build 0)  -->
<svg version="1.1" id="Calque_1" xmlns="http://www.w3.org/2000/svg" xmlns:xlink="http://www.w3.org/1999/xlink" x="0px" y="0px"
	 viewBox="0 0 648.97 793.42" style="enable-background:new 0 0 648.97 793.42;" xml:space="preserve">
<style type="text/css">
	.st0{fill:#F2E5CE;}
	.st1{fill:#4E967A;}
	.st2{fill:none;stroke:#1D1D1B;stroke-width:1.2746;stroke-linecap:round;stroke-miterlimit:10;}
	.st3{fill:none;stroke:#4F967A;stroke-width:1.2746;stroke-linecap:round;stroke-miterlimit:10;}
	.st4{fill:none;stroke:#88C8AD;stroke-width:1.2746;stroke-linecap:round;stroke-miterlimit:10;}
	.st5{fill:none;stroke:#4F967A;stroke-width:3.8238;stroke-linecap:round;stroke-miterlimit:10;}
	.st6{fill:none;stroke:#88C8AD;stroke-width:3.8238;stroke-linecap:round;stroke-miterlimit:10;}
	.st7{fill:none;stroke:#88C8AD;stroke-width:7.6477;stroke-linecap:round;stroke-miterlimit:10;}
	.st8{fill:none;stroke:#4F967A;stroke-width:7.6477;stroke-linecap:round;stroke-miterlimit:10;}
	.st9{fill:none;stroke:#4F967A;stroke-width:15.2953;stroke-linecap:round;stroke-miterlimit:10;}
	.st10{fill:none;stroke:#88C8AD;stroke-width:15.2953;stroke-linecap:round;stroke-miterlimit:10;}
	.st11{fill:none;stroke:#88C8AD;stroke-width:19.1192;stroke-linecap:round;stroke-miterlimit:10;}
	.st12{fill:none;stroke:#4F967A;stroke-width:19.1192;stroke-linecap:round;stroke-miterlimit:10;}
	.st13{fill:#FBBB21;}
	.st14{fill:#5D79B5;}
	.st15{fill:#FFFFFF;}
	.st16{fill:#93B0DB;}
</style>
<path class="st0" d="M648.97,793.42h-472.7C78.92,793.42,0,714.5,0,617.15V0h472.7c97.35,0,176.27,78.92,176.27,176.27V793.42z"/>
<path class="st1" d="M525.06,640.8c-22.42,1.44-39.52-27.84-60-32.53c-11.16-2.56-19.21-5.07-30.39-7.54
	c-8.79-1.94-13.65-12.77-20.67-21.3h0.15c0,0-0.33-0.33-0.91-0.91c-1.7-1.98-3.53-3.8-5.57-5.33l0,0
	c-7.76-7.2-20.48-18.09-26.76-18.33c-9.39-0.36-14.45-11.92-23.85-14.45c-9.39-2.53-21.68-5.78-21.68-5.78s-9.03-14.81-9.03-35.77
	s-0.72-48.42-6.5-57.09c0,0,27.28-49.5,26.11-66.12c-1.18-16.62-2.62-24.57-2.62-24.57s5.78-6.5,7.23-15.9
	c1.45-9.39,5.95-23.73,20.04-27.7c0,0-3.18-25.77-7.23-19.87c-3.37,4.92-12.65,4.16-19.95,10.94c-5.51,5.12-21.12,14.13-23.58-7.09
	c-2.12-18.37-10.31-35.86-10.31-35.86l-18,5.58c3.67,10.77-3.18,25.4,5.91,38.59c0,0-20.59,13.73-18.07,20.96
	c2.53,7.23,1.81,20.96-2.17,30.35c-3.97,9.39-5.78,32.16-5.78,32.16c-4.7-3.25-7.23-0.36-7.23,18.79s-22.04,33.96-22.04,49.5
	s7.77,26.38,7.77,26.38s-20.07,16.08-20.23,26.19c-0.2,13.01-1.82,6.21,4.35,22.46c2.3,6.06-16.91,34.19-21.1,40.47
	c-2.82,4.23-6.08,8.07-7.87,16.58c-3.93,18.67-28.73,30.38-44.17,41.07c-7.12,4.93-15.93,17.53-42.29,25.05
	c-3.79,1.08-8.89,3.36-7.64,7.1c9.9,3.79,19.84-1.66,30.39-2.75c20.47-2.13,29.63-4.53,44.38-15.65c6.54-4.93,27.32-8.78,29.57-6.7
	c1.61,1.48-12.89,16.28-27.16,20.79c-8.32,2.63-14.36,16.66-11.2,16.62c15.54-0.18,11.12-7.65,27.1-11.92
	c19.73-5.28,38.22-33.32,44.86-34.29c9.15-1.32,11.25-8.18,20.84-5.54c2.41,0.66,1.72,4.32,1.18,5.69
	c-3.13,7.93-13.86,6.5-21.72,13.83c-8.97,8.37-19.57,35.97-40.63,46.07c-11.28,5.41,15.27,6.79,21.3,1.7
	c2.13-1.8,9.45-11.32,16.44-13.73c9.09-3.13,19.33-19.87,34.87-18.25c6.42,0.67,9.88,4.76,16.01,7.74
	c7.56,3.68,10.36,10.41,12.89,12.04c5.57,3.59,16.05,5.13,14.36,1.9c-1.89-3.63-2.92-4.4-8.04-11.2c-3.12-4.15-3.07-8.26-3.25-12.65
	c-0.15-3.66-2.22-7.85-2.89-9.83c-0.74-2.18,5.76-5.26,8.6-7.23c3.93-2.72,17.19,0.07,25.55,3.07c7.05,2.53,2.17,12.36,7.41,16.7
	c3.06,2.53,7.45,2.18,12.28,3.43c8.02,2.08,19.25,10.84,21.32,9.66c2.89-1.64,5.54-4.12,1.45-7.49
	c-3.25-2.89-4.88-10.48-13.67-13.43c-2.78-0.93-2.77-3.73,0.84-5c2.21-0.77,18.41,3.42,23.81,8.62c9.64,9.27,22.84,3.88,35.62,7.84
	c8.74,2.71,22.03,11.64,27.52,12.75c4.1,0.83,27.04,0.96,28.18-1.57c1.81-4.01-5.35-6.68-9.74-7.02
	c-13.38-1.05-21.04-11.73-31.33-13.75c-24.75-4.88-41.11-25.56-46.37-34.58c5.96-0.9,13.84,8.98,25.41,10.56
	c14.78,2.01,25.65-3.79,46.97,5.06c5.65,2.35,11.78,10.82,18.43,15.36c8.27,5.65,16.2,1.98,24.87,2.89
	C526.03,647.43,533.49,640.08,525.06,640.8z"/>
<path class="st2" d="M249.85,477.9c2.23,4.82,12.83,19.75,12.83,19.75"/>
<path class="st2" d="M300.62,525.47c0,0,10.24,9.39,19.15,9.88c8.91,0.48,11.5-1.8,18.26,0"/>
<path class="st2" d="M271.35,383.23c-0.96,9.51,14.69,28.54,14.69,28.54"/>
<path class="st2" d="M300.62,422.14c0,0,14.33,11.56,19.15,19.63"/>
<path class="st2" d="M297.36,299.77c2.35,5.06,9.39,13.19,9.39,13.19"/>
<path class="st2" d="M329.34,330.84c0,0,12.34,7.94,13.91,20.23"/>
<path class="st2" d="M232.36,522.98c0,0,9.44,26.74,28.71,37.82c19.27,11.08,55.16,16.14,55.16,16.14"/>
<path class="st3" d="M125.54,256.61c0,0-14.71-3.87-24.31-1.88"/>
<path class="st3" d="M96.32,287.92c0,0-7.53,22.81-22.41,31.46"/>
<path class="st3" d="M135.25,346.64c-12.41,14.75-48.59,4.37-66.72,16.5"/>
<path class="st3" d="M258.52,151.61c-1.18-9.8-10.97-17.41-21.5-20.09"/>
<path class="st3" d="M167.48,168.04c0,0-8.82,5.28-12.55,5.9"/>
<path class="st3" d="M277.92,223.99c-6.68-8.03-25.06-6.31-34.24-4.27"/>
<path class="st4" d="M212.88,230.31c-10.98,1.41-35.46-5.58-35.46-5.58"/>
<path class="st3" d="M327.35,141.87c-8-12.79-7.71-33.11-7.71-33.11"/>
<path class="st3" d="M342.43,209.27c0,0,28.51-10.69,31.42-23.35"/>
<path class="st3" d="M268.07,277.8c-8.79,11.79-26.59,22.51-26.59,22.51"/>
<path class="st3" d="M375.82,282.64c-0.23-16.89-9.56-32.49-10.55-52.16"/>
<path class="st3" d="M509.42,236.99c4.54-16.11-9.4-35.17-9.4-35.17"/>
<path class="st3" d="M499.04,427.54c-0.03,15.5,13.61,31.72,20.88,35.13"/>
<path class="st3" d="M433.44,307.64c1.69,10.77,6.34,23.74,0.33,38.31"/>
<path class="st4" d="M373.48,307.37c-2.62,5.79,2.33,22.65,5.58,26.18"/>
<path class="st4" d="M536.48,293.69c8.89,5.92,8.8,29.19,8.8,29.19"/>
<path class="st3" d="M494.93,314.42c10.7,5.87,12.2,25.79,18.6,34.8c6.4,9.01,10.88,11.8,10.88,11.8"/>
<path class="st3" d="M559.61,344.23c4.16,0.35,5.58,14.87,12.73,23.43"/>
<path class="st3" d="M442.85,188.58c1.38-7.37,10.49-14.28,10.49-14.28"/>
<path class="st5" d="M176.6,297.88c-13.49,11.48-9.85,46.3-23.75,63.87"/>
<path class="st5" d="M218.45,293.7c-13.44,22.18-37.85,32.62-37.85,32.62"/>
<path class="st6" d="M279.03,188.78c-4.62-13.53-38.54-15.51-38.54-15.51"/>
<path class="st5" d="M278.44,266.23c-7.78,8.24-4.31,30.11-4.31,30.11"/>
<path class="st5" d="M249.24,201.25c-16.91-3.85-36.54,16.77-36.54,16.77"/>
<path class="st5" d="M241.82,256.03c-12.26,4.82-27.19-10.45-53.32-1.64"/>
<path class="st5" d="M122.94,258.43c-12.7,11.4-40.86,13.55-49.09-0.67"/>
<path class="st5" d="M142.82,274.4c0,0,3.22,21.13-8.99,46.09"/>
<path class="st6" d="M207.5,339.68c-4.72,19.93,5.98,40.2,5.72,54.23"/>
<path class="st5" d="M349.65,157.09c-2.92,19.08-15.42,34.76-26.16,48.85"/>
<path class="st5" d="M308.43,137.4"/>
<path class="st5" d="M189.35,175.81c-23.02,1.93-34.42-29.54-34.42-29.54"/>
<path class="st5" d="M396.88,287.7c0,0-0.3-17.48,21-28.26c25.04-12.67,27.71-23.21,27.71-23.21"/>
<path class="st5" d="M410.3,237.49c0,0-5.85-13.6,2.05-30.17c7.9-16.57,15.68-20.89,15.68-20.89"/>
<path class="st6" d="M387.09,203.48c3.37-20.98,19.2-39.42,12.49-64.56"/>
<path class="st5" d="M455.99,202.11c10.34-16.7,36.5-18.46,36.5-18.46"/>
<path class="st5" d="M412.95,336.27c2.46,10.54-11.14,28.46-13.18,57.91c-2.03,29.45,3.62,41.79,3.62,41.79"/>
<path class="st6" d="M528.57,290.04c23.41,9.73,49.65-9.78,54.22-16.53"/>
<path class="st5" d="M523.04,329.63c9.63,10.96,35.81,23.68,54.96,10.69"/>
<path class="st5" d="M472.02,423.25c-0.97,11.7-8.16,24.93-8.57,53.09c-0.32,22.35,9.52,37.97,9.52,37.97"/>
<path class="st5" d="M422.9,418.23c2.59,12.95,18.64,29.61,26.93,32.63"/>
<path class="st7" d="M497.1,371.67c0,0,2.5,41.86,1.83,64.2c-0.99,32.68,9.53,45.56,23.2,56.12"/>
<path class="st8" d="M445.51,321.27c4.87,22.48,1.63,47.66,1.63,47.66"/>
<path class="st7" d="M445.43,167.81c0,0,0.29,38.05-24.03,63.25"/>
<path class="st8" d="M509.1,245.78c6.45-15.42,26.41-30.3,26.41-30.3"/>
<path class="st8" d="M480.49,329.42c12.53,23.39,21.29,19.63,37.24,38.93c17.68,21.39,21.12,34.27,21.12,34.27"/>
<path class="st8" d="M488.05,288.09c0,0,30.3,12.15,37.23,26.92"/>
<path class="st8" d="M370.1,294.86c0,0,6.33,25.03,19.96,36.84"/>
<path class="st8" d="M323.14,211.37c10.15-23.13-28.8-31.52-34.64-66.99"/>
<path class="st8" d="M267.12,164.27c0,0-12.13-18.76-12.47-39.78"/>
<path class="st7" d="M240.92,196.25c0,0-29.41-24.82-54.24-20.04s-41.62,27.75-63.06,7.45"/>
<path class="st8" d="M154.11,325.84c-23.05,31.82-82.53,20.18-89.95,13.42"/>
<path class="st7" d="M178.72,241.59c0,0-51.29,1.21-74.16,35.51c-15.93,23.89-28.64,24.33-39.79,21.98"/>
<path class="st7" d="M300.11,250.79c0,0-31.84,15.45-41.7,45.35c-9.57,29.02-29.22,41.37-29.22,41.37"/>
<path class="st8" d="M304.87,248.18c11.18-25.48,47.07-35.83,60.4-69.9c11.18-28.6,0-62.42,0-62.42"/>
<path class="st9" d="M291.68,235.69c0,0-3.37-45.65-23.09-69.04c-10.09-11.97-38.35-23.43-59.83-16.02"/>
<path class="st9" d="M268.99,250.26c0,0-17.38-16.37-55.76-15.3c-51.67,1.44-55.53,39.92-92.95,53.12"/>
<path class="st9" d="M213.2,316.48c0,0-21.79,49.54-60.35,66.75c-35.4,15.8-48,33.24-48,33.24"/>
<path class="st9" d="M478.16,290.28c0,0,47.08-42.06,44.15-95.36"/>
<path class="st9" d="M380.57,259.8c0,0,11.46-13.25,46.27-31.67c39.97-21.15,43.35-73.36,36.25-90.22"/>
<path class="st9" d="M423.79,287.95c0,0,53.04,65.19,48.28,134.53c-3.94,57.47,11.16,83.64,34.6,94.8"/>
<path class="st10" d="M452.58,306.26c0,0,42.32-8.61,63.96,19.97c21.38,28.23,18.85,61.55,70.59,67.13"/>
<path class="st9" d="M429.58,384.84c0,0-5.8,16.51-4.4,41.94c0.99,17.97,6.32,49.3,17.19,67"/>
<path class="st9" d="M505.99,281.42c38.74,3.18,41.74,36.74,91.98,20.13"/>
<path class="st11" d="M384.11,289.13c0,0,27.29,10.88,29.64,49.16c3.39,55.05,27.15,72.26,49.69,76.73"/>
<path class="st11" d="M417.14,289.73c0,0,58.82-32.18,66.45-74.53"/>
<path class="st12" d="M353.07,307.09c0,0,30.87-31.44,67.93-15.91s58.87,23.72,67.53,59.63c9.22,38.24,35.89,83.73,76.21,85.15"/>
<path class="st12" d="M421,291.18c0,0,34.94,6.21,70.36-4c35.42-10.21,53.38-40.98,53.38-40.98"/>
<path class="st12" d="M427.48,151.61c0,0-33.64,34.8-41.52,67.24c-10.56,43.47-7.99,61.07-19.68,78.19"/>
<path class="st11" d="M301.82,103.22c0,0,26.09,20.1,28.8,66.1c2.15,36.6-26.41,58.73-28.55,88.99"/>
<path class="st11" d="M253.24,258.67c0,0-62.44,3.07-94.92,60.29c-21.04,37.07-71.07,76.68-100.29,74.76"/>
<path class="st12" d="M291.53,242.27c0,0-53.14,10.95-70.66,51.99c-19.35,45.33-13.09,95.39-51.68,116.93"/>
<path class="st12" d="M302.78,266.28c0,0-9.93-46.02-49.15-64.77c-50.99-24.36-100.78,33.45-140.24,19.49"/>
<path class="st13" d="M320.92,114.94c6.1-4.15,8.13-12.03,5.14-18.51c2.49-4.71,2.37-10.61-0.83-15.32
	c-4.04-5.95-11.65-8.05-18.04-5.36c-4.95-3.76-11.93-4.15-17.35-0.47c-1.68,1.14-3.05,2.56-4.09,4.16c-1.87,0.38-3.7,1.13-5.38,2.27
	c-5.71,3.88-7.85,11.03-5.65,17.25c-3.05,4.85-3.14,11.23,0.28,16.27c2.99,4.4,7.93,6.68,12.88,6.49
	c4.94,5.01,12.89,5.94,18.92,1.85c2.32-1.58,4.04-3.71,5.14-6.08C315.01,117.61,318.17,116.8,320.92,114.94z"/>
<path class="st14" d="M118.13,199.96c-5.89-3.92-13.63-2.86-18.3,2.15c-5.09-0.51-10.28,1.74-13.3,6.29
	c-3.82,5.75-2.92,13.26,1.78,17.96c-1.55,5.75,0.63,12.1,5.87,15.58c1.62,1.08,3.38,1.78,5.18,2.12c1.02,1.52,2.34,2.88,3.96,3.95
	c5.52,3.67,12.64,2.97,17.37-1.23c5.41,0.95,11.11-1.28,14.35-6.15c2.82-4.25,3.06-9.46,1.09-13.79c2.65-6.2,0.6-13.6-5.22-17.47
	c-2.24-1.49-4.76-2.25-7.26-2.36C122.64,204.23,120.79,201.73,118.13,199.96z"/>
<path class="st15" d="M55.14,362.23c-7.07-0.29-13.13,4.63-14.53,11.33c-4.61,2.21-7.88,6.82-8.1,12.28
	c-0.28,6.9,4.39,12.85,10.84,14.43c1.67,5.72,6.82,10.01,13.1,10.27c1.94,0.08,3.81-0.24,5.53-0.87c1.66,0.77,3.5,1.24,5.44,1.32
	c6.62,0.27,12.35-4.02,14.2-10.07c5.11-2,8.83-6.86,9.07-12.7c0.21-5.1-2.3-9.67-6.22-12.35c-0.95-6.68-6.54-11.94-13.53-12.22
	c-2.69-0.11-5.23,0.55-7.43,1.76C61.21,363.54,58.33,362.36,55.14,362.23z"/>
<path class="st13" d="M504.57,460.23c-6.1,3.59-8.52,11.01-6.05,17.4c-2.67,4.36-2.92,10.01-0.14,14.72
	c3.51,5.95,10.66,8.41,16.94,6.24c4.5,3.9,11.16,4.71,16.58,1.51c1.68-0.99,3.07-2.27,4.17-3.73c1.81-0.25,3.61-0.85,5.29-1.84
	c5.7-3.36,8.19-10.08,6.47-16.16c3.21-4.45,3.69-10.56,0.73-15.59c-2.59-4.4-7.18-6.88-11.93-7c-4.42-5.09-11.98-6.48-18-2.93
	c-2.32,1.37-4.1,3.3-5.29,5.51C510.39,458.03,507.32,458.61,504.57,460.23z"/>
<path class="st13" d="M551.71,227.43c-6.79-1.99-13.86,1.31-16.84,7.48c-5.01,1.03-9.3,4.71-10.83,9.96
	c-1.94,6.62,1.15,13.53,7.03,16.62c0.23,5.95,4.2,11.36,10.23,13.13c1.87,0.55,3.76,0.69,5.58,0.49c1.42,1.15,3.09,2.05,4.96,2.6
	c6.36,1.86,12.95-0.91,16.22-6.34c5.45-0.7,10.23-4.52,11.87-10.13c1.44-4.9,0.11-9.94-3.05-13.49c0.69-6.71-3.46-13.17-10.17-15.13
	c-2.59-0.76-5.21-0.73-7.64-0.09C557.29,230.17,554.77,228.33,551.71,227.43z"/>
<path class="st13" d="M221.88,176.9c-0.33-2.39,1.14-4.61,3.37-5.31c0.6-1.64,2.06-2.9,3.91-3.15c2.33-0.32,4.51,1.07,5.26,3.21
	c2,0.38,3.62,1.99,3.92,4.11c0.09,0.66,0.04,1.3-0.12,1.91c0.32,0.54,0.54,1.15,0.63,1.8c0.31,2.24-0.96,4.33-2.95,5.15
	c-0.51,1.8-2.04,3.22-4.02,3.5c-1.73,0.24-3.36-0.46-4.4-1.71c-2.3-0.1-4.27-1.83-4.6-4.19c-0.13-0.91,0.01-1.79,0.35-2.58
	C222.52,178.92,222.03,177.98,221.88,176.9z"/>
<path class="st16" d="M344.94,150.25c1.57-1.83,4.21-2.2,6.21-0.99c1.62-0.64,3.54-0.38,4.95,0.83c1.79,1.53,2.19,4.08,1.08,6.06
	c1.04,1.75,0.91,4.03-0.48,5.66c-0.43,0.5-0.95,0.9-1.5,1.18c-0.19,0.59-0.5,1.16-0.94,1.67c-1.47,1.72-3.88,2.15-5.82,1.21
	c-1.69,0.81-3.77,0.61-5.28-0.69c-1.32-1.13-1.88-2.82-1.64-4.43c-1.45-1.79-1.46-4.41,0.09-6.22c0.6-0.7,1.35-1.18,2.17-1.45
	C343.86,152.07,344.23,151.07,344.94,150.25z"/>
<path class="st13" d="M429.8,177.81c2.38-0.41,4.65,0.99,5.41,3.2c1.66,0.55,2.97,1.96,3.28,3.8c0.4,2.32-0.92,4.54-3.04,5.36
	c-0.31,2.01-1.87,3.69-3.99,4.05c-0.65,0.11-1.3,0.09-1.91-0.05c-0.53,0.33-1.13,0.57-1.78,0.69c-2.23,0.38-4.36-0.82-5.25-2.79
	c-1.82-0.45-3.29-1.94-3.63-3.9c-0.29-1.72,0.35-3.37,1.56-4.45c0.03-2.3,1.69-4.33,4.04-4.73c0.91-0.15,1.79-0.04,2.59,0.27
	C427.8,178.52,428.73,177.99,429.8,177.81z"/>
<path class="st13" d="M146.77,165.13c2.19-1.02,4.74-0.26,6.06,1.67c1.74,0.09,3.38,1.12,4.16,2.81c0.99,2.14,0.3,4.62-1.52,5.97
	c0.23,2.02-0.84,4.05-2.78,4.95c-0.6,0.28-1.23,0.43-1.86,0.45c-0.42,0.46-0.94,0.85-1.54,1.13c-2.05,0.95-4.42,0.35-5.79-1.31
	c-1.87,0.04-3.68-1-4.52-2.81c-0.73-1.58-0.54-3.35,0.34-4.71c-0.58-2.23,0.5-4.62,2.66-5.63c0.83-0.39,1.72-0.51,2.57-0.42
	C145.03,166.34,145.79,165.59,146.77,165.13z"/>
<path class="st15" d="M181.31,316.19c2.19-1.02,4.74-0.26,6.06,1.67c1.74,0.09,3.38,1.12,4.16,2.81c0.99,2.14,0.3,4.62-1.52,5.97
	c0.23,2.02-0.84,4.05-2.78,4.95c-0.6,0.28-1.23,0.43-1.86,0.45c-0.42,0.46-0.94,0.85-1.54,1.13c-2.05,0.95-4.42,0.35-5.79-1.31
	c-1.87,0.04-3.68-1-4.52-2.81c-0.73-1.58-0.54-3.35,0.34-4.71c-0.58-2.23,0.5-4.62,2.66-5.63c0.83-0.39,1.72-0.51,2.57-0.42
	C179.57,317.4,180.33,316.65,181.31,316.19z"/>
<path class="st14" d="M188.2,403.34c4.83,4.13,5.82,11.07,2.64,16.33c1.69,4.27,1.02,9.3-2.17,13.04
	c-4.03,4.71-10.74,5.78-15.95,2.87c-4.59,2.75-10.61,2.42-14.9-1.25c-1.33-1.14-2.36-2.48-3.11-3.95c-1.57-0.5-3.06-1.32-4.39-2.45
	c-4.52-3.86-5.67-10.19-3.2-15.3c-2.15-4.44-1.62-9.91,1.79-13.9c2.98-3.48,7.42-4.96,11.64-4.33c4.71-3.81,11.6-3.86,16.37,0.22
	c1.84,1.57,3.11,3.56,3.82,5.7C183.4,400.49,186.02,401.48,188.2,403.34z"/>
<path class="st15" d="M571.74,356.91c2.38-0.41,4.65,0.99,5.41,3.2c1.66,0.55,2.97,1.96,3.28,3.8c0.4,2.32-0.92,4.54-3.04,5.36
	c-0.31,2.01-1.87,3.69-3.99,4.05c-0.65,0.11-1.3,0.09-1.91-0.05c-0.53,0.33-1.13,0.57-1.78,0.69c-2.23,0.38-4.36-0.82-5.25-2.79
	c-1.82-0.45-3.29-1.94-3.63-3.9c-0.29-1.72,0.35-3.37,1.56-4.45c0.03-2.3,1.69-4.33,4.04-4.73c0.91-0.15,1.79-0.04,2.59,0.27
	C569.74,357.62,570.67,357.1,571.74,356.91z"/>
<path class="st14" d="M406.39,432.04c1.86-0.32,3.63,0.77,4.23,2.5c1.29,0.43,2.32,1.53,2.56,2.97c0.31,1.81-0.72,3.55-2.37,4.19
	c-0.24,1.57-1.46,2.88-3.11,3.16c-0.51,0.09-1.02,0.07-1.49-0.04c-0.41,0.26-0.88,0.45-1.39,0.54c-1.74,0.3-3.4-0.64-4.1-2.18
	c-1.42-0.35-2.57-1.51-2.83-3.05c-0.23-1.34,0.28-2.64,1.22-3.48c0.02-1.8,1.32-3.38,3.16-3.7c0.71-0.12,1.4-0.03,2.03,0.21
	C404.83,432.59,405.55,432.18,406.39,432.04z"/>
<path class="st16" d="M156.66,359.24c1.04,1.57,0.76,3.63-0.57,4.88c0.13,1.36-0.46,2.74-1.68,3.55c-1.53,1.02-3.54,0.78-4.79-0.47
	c-1.53,0.41-3.23-0.17-4.15-1.57c-0.29-0.43-0.47-0.9-0.57-1.38c-0.41-0.27-0.77-0.63-1.05-1.06c-0.98-1.47-0.79-3.37,0.33-4.63
	c-0.25-1.44,0.34-2.96,1.64-3.83c1.13-0.75,2.52-0.81,3.68-0.29c1.65-0.71,3.63-0.16,4.66,1.39c0.4,0.6,0.6,1.27,0.63,1.94
	C155.52,358.04,156.19,358.53,156.66,359.24z"/>
<path class="st16" d="M80.62,318.32c0.82,1.7,0.26,3.7-1.23,4.76c-0.05,1.36-0.83,2.65-2.14,3.29c-1.66,0.8-3.61,0.29-4.68-1.12
	c-1.58,0.2-3.17-0.61-3.9-2.11c-0.23-0.47-0.35-0.96-0.37-1.45c-0.37-0.32-0.68-0.72-0.9-1.19c-0.77-1.59-0.33-3.45,0.95-4.54
	c-0.05-1.46,0.74-2.89,2.14-3.57c1.23-0.59,2.61-0.47,3.68,0.21c1.73-0.48,3.62,0.33,4.43,2.01c0.31,0.65,0.42,1.34,0.36,2
	C79.65,316.98,80.25,317.56,80.62,318.32z"/>
<path class="st15" d="M214.2,226.76c-1.55,1.08-3.62,0.84-4.89-0.48c-1.35,0.16-2.75-0.41-3.58-1.61c-1.05-1.51-0.85-3.52,0.38-4.8
	c-0.44-1.53,0.1-3.23,1.48-4.18c0.43-0.3,0.89-0.49,1.37-0.59c0.26-0.41,0.61-0.78,1.04-1.07c1.45-1.01,3.35-0.86,4.64,0.24
	c1.44-0.28,2.97,0.28,3.86,1.56c0.78,1.12,0.86,2.51,0.36,3.67c0.74,1.64,0.23,3.62-1.3,4.69c-0.59,0.41-1.26,0.62-1.92,0.67
	C215.38,225.6,214.9,226.27,214.2,226.76z"/>
<path class="st13" d="M407.54,137.29c1.02,1.59,0.7,3.65-0.66,4.87c0.11,1.36-0.51,2.73-1.74,3.52c-1.55,0.99-3.55,0.71-4.78-0.56
	c-1.54,0.38-3.22-0.23-4.13-1.64c-0.28-0.44-0.46-0.91-0.54-1.39c-0.4-0.28-0.76-0.64-1.03-1.08c-0.95-1.49-0.73-3.38,0.41-4.62
	c-0.23-1.45,0.4-2.96,1.71-3.8c1.15-0.73,2.54-0.77,3.68-0.23c1.67-0.68,3.63-0.1,4.63,1.47c0.39,0.61,0.58,1.28,0.59,1.95
	C406.42,136.06,407.08,136.57,407.54,137.29z"/>
<path class="st14" d="M552.33,322.07c1.02,1.59,0.7,3.65-0.66,4.87c0.11,1.36-0.51,2.73-1.74,3.52c-1.55,0.99-3.55,0.71-4.78-0.56
	c-1.54,0.38-3.22-0.23-4.13-1.64c-0.28-0.44-0.46-0.91-0.54-1.39c-0.4-0.28-0.76-0.64-1.03-1.08c-0.95-1.49-0.73-3.38,0.41-4.62
	c-0.23-1.45,0.4-2.96,1.71-3.8c1.15-0.73,2.54-0.77,3.68-0.23c1.67-0.68,3.63-0.1,4.63,1.47c0.39,0.61,0.58,1.28,0.59,1.95
	C551.22,320.84,551.88,321.35,552.33,322.07z"/>
<path class="st16" d="M193.37,252.87c-0.85-2.26-3.19-3.52-5.49-3.07c-1.3-1.16-3.19-1.58-4.94-0.92c-2.21,0.83-3.46,3.08-3.1,5.32
	c-1.58,1.28-2.24,3.47-1.49,5.48c0.23,0.62,0.58,1.17,1.01,1.62c-0.02,0.62,0.07,1.26,0.31,1.89c0.79,2.12,2.9,3.35,5.05,3.13
	c1.31,1.34,3.33,1.87,5.2,1.17c1.63-0.61,2.74-2,3.06-3.59c1.97-1.18,2.89-3.64,2.05-5.87c-0.32-0.86-0.87-1.57-1.54-2.1
	C193.76,254.95,193.75,253.89,193.37,252.87z"/>
<path class="st13" d="M224.39,352.73c2.7,1.62,6.11,1,8.08-1.32c2.27,0.12,4.53-0.98,5.78-3.06c1.58-2.63,1.03-5.95-1.15-7.94
	c0.57-2.59-0.53-5.36-2.92-6.8c-0.74-0.45-1.54-0.72-2.34-0.84c-0.48-0.66-1.1-1.23-1.84-1.68c-2.52-1.52-5.67-1.07-7.69,0.9
	c-2.42-0.31-4.91,0.79-6.25,3.02c-1.17,1.94-1.17,4.26-0.21,6.15c-1.05,2.81,0.01,6.05,2.67,7.65c1.03,0.62,2.16,0.9,3.27,0.9
	C222.3,350.93,223.17,352,224.39,352.73z"/>
<path class="st15" d="M439.63,509.61c4.22,1.03,8.46-1.2,10.11-5.07c3.04-0.77,5.57-3.16,6.36-6.42c1-4.12-1.09-8.26-4.79-9.99
	c-0.31-3.64-2.9-6.85-6.65-7.76c-1.16-0.28-2.32-0.32-3.43-0.14c-0.91-0.67-1.95-1.17-3.11-1.45c-3.95-0.96-7.92,0.93-9.76,4.35
	c-3.32,0.59-6.14,3.07-6.99,6.55c-0.74,3.04,0.22,6.1,2.26,8.18c-0.23,4.13,2.5,7.98,6.67,8.99c1.61,0.39,3.21,0.3,4.68-0.16
	C436.13,508.09,437.73,509.15,439.63,509.61z"/>
<path class="st13" d="M446.34,246.5c2,0.49,4.01-0.57,4.8-2.41c1.44-0.37,2.64-1.5,3.02-3.04c0.47-1.95-0.52-3.92-2.27-4.74
	c-0.15-1.73-1.38-3.25-3.15-3.68c-0.55-0.13-1.1-0.15-1.63-0.07c-0.43-0.32-0.93-0.55-1.48-0.69c-1.87-0.46-3.76,0.44-4.63,2.06
	c-1.57,0.28-2.91,1.46-3.32,3.11c-0.35,1.44,0.1,2.89,1.07,3.88c-0.11,1.96,1.19,3.78,3.16,4.26c0.76,0.19,1.52,0.14,2.22-0.08
	C444.68,245.78,445.44,246.28,446.34,246.5z"/>
<path class="st13" d="M109.51,299.54c1.82,3.32,5.75,4.73,9.2,3.52c2.28,1.5,5.3,1.72,7.86,0.32c3.24-1.78,4.67-5.56,3.61-8.95
	c2.16-2.34,2.7-5.89,1.08-8.84c-0.5-0.91-1.16-1.68-1.93-2.29c-0.1-0.97-0.4-1.94-0.9-2.86c-1.7-3.1-5.25-4.54-8.53-3.72
	c-2.33-1.79-5.58-2.15-8.32-0.64c-2.39,1.31-3.79,3.72-3.94,6.26c-2.79,2.28-3.66,6.3-1.86,9.57c0.69,1.26,1.7,2.24,2.86,2.92
	C108.43,296.4,108.69,298.05,109.51,299.54z"/>
<path class="st16" d="M223.96,141.93c1.55-4.69-0.58-9.69-4.81-11.92c-0.6-3.51-3.06-6.59-6.68-7.79c-4.57-1.51-9.46,0.47-11.76,4.5
	c-4.16,0.02-8.02,2.65-9.4,6.82c-0.43,1.29-0.57,2.6-0.48,3.88c-0.84,0.96-1.5,2.11-1.93,3.39c-1.45,4.39,0.33,9.05,4.03,11.46
	c0.36,3.81,2.91,7.24,6.78,8.52c3.38,1.12,6.93,0.32,9.48-1.8c4.66,0.64,9.26-2.1,10.79-6.72c0.59-1.78,0.64-3.61,0.25-5.32
	C221.92,145.76,223.27,144.05,223.96,141.93z"/>
<path class="st16" d="M503.4,173.86c-3.33-3.64-8.74-4.23-12.75-1.62c-3.36-1.2-7.25-0.55-10.06,2.02
	c-3.55,3.25-4.21,8.48-1.82,12.46c-2.01,3.64-1.6,8.3,1.36,11.53c0.92,1,1.99,1.77,3.15,2.31c0.43,1.2,1.1,2.34,2.02,3.34
	c3.12,3.41,8.06,4.14,11.96,2.08c3.5,1.55,7.74,1,10.74-1.75c2.63-2.4,3.66-5.89,3.06-9.15c2.84-3.75,2.7-9.11-0.59-12.7
	c-1.27-1.39-2.84-2.32-4.52-2.82C505.74,177.51,504.9,175.5,503.4,173.86z"/>
<path class="st15" d="M441.81,286.72c-6.22,0.05-11.34,4.62-12.28,10.58c-3.96,2.14-6.63,6.33-6.6,11.14
	c0.05,6.07,4.4,11.1,10.14,12.22c1.71,4.96,6.42,8.5,11.95,8.46c1.71-0.01,3.34-0.37,4.82-1c1.49,0.61,3.12,0.94,4.83,0.93
	c5.82-0.04,10.68-4.06,12.05-9.45c4.41-1.97,7.47-6.41,7.43-11.54c-0.03-4.49-2.43-8.4-5.99-10.59c-1.12-5.83-6.26-10.21-12.4-10.16
	c-2.37,0.02-4.57,0.7-6.45,1.86C447.21,287.61,444.62,286.69,441.81,286.72z"/>
<path class="st13" d="M286.72,195.08c-4.82-1.3-9.75,1.13-11.76,5.53c-3.51,0.8-6.48,3.46-7.49,7.18c-1.27,4.7,1.01,9.52,5.21,11.62
	c0.25,4.19,3.13,7.95,7.41,9.1c1.32,0.36,2.66,0.43,3.94,0.26c1.02,0.79,2.21,1.4,3.54,1.76c4.51,1.22,9.12-0.84,11.34-4.71
	c3.83-0.58,7.14-3.34,8.22-7.32c0.94-3.47-0.07-7.01-2.35-9.47c0.39-4.74-2.64-9.23-7.4-10.52c-1.83-0.5-3.68-0.44-5.38,0.05
	C290.69,196.93,288.89,195.67,286.72,195.08z"/>
<path class="st14" d="M232.94,292.08c-2.52,2.83-2.55,7-0.25,9.86c-0.66,2.66,0.14,5.58,2.32,7.53c2.76,2.46,6.81,2.56,9.66,0.43
	c2.93,1.26,6.46,0.58,8.7-1.93c0.69-0.78,1.2-1.66,1.52-2.58c0.88-0.42,1.7-1.02,2.4-1.8c2.36-2.64,2.54-6.47,0.67-9.3
	c0.91-2.79,0.17-5.99-2.17-8.07c-2.04-1.82-4.78-2.34-7.22-1.63c-3.09-1.88-7.16-1.35-9.66,1.44c-0.96,1.08-1.55,2.35-1.8,3.67
	C235.54,290.01,234.07,290.8,232.94,292.08z"/>
<path class="st14" d="M350.46,228.67c-1.67,3.4-0.58,7.43,2.4,9.57c0.08,2.74,1.63,5.34,4.26,6.63c3.32,1.63,7.24,0.64,9.42-2.18
	c3.16,0.43,6.38-1.17,7.87-4.19c0.46-0.93,0.71-1.92,0.77-2.9c0.74-0.64,1.37-1.44,1.83-2.38c1.57-3.18,0.71-6.92-1.85-9.14
	c0.13-2.94-1.45-5.81-4.25-7.19c-2.45-1.21-5.23-0.97-7.4,0.37c-3.48-0.98-7.27,0.61-8.92,3.97c-0.64,1.29-0.87,2.68-0.75,4.02
	C352.42,225.98,351.22,227.13,350.46,228.67z"/>
<path class="st16" d="M395.88,341.59c2-2.43,1.88-5.9-0.12-8.19c0.45-2.23-0.3-4.62-2.18-6.17c-2.37-1.95-5.73-1.89-8.02-0.03
	c-2.48-0.94-5.38-0.27-7.15,1.89c-0.55,0.67-0.94,1.42-1.17,2.19c-0.72,0.38-1.38,0.91-1.93,1.57c-1.87,2.27-1.89,5.46-0.24,7.74
	c-0.66,2.35,0.06,4.97,2.07,6.62c1.75,1.44,4.04,1.78,6.05,1.11c2.62,1.45,5.99,0.88,7.96-1.52c0.76-0.92,1.21-2,1.37-3.11
	C393.78,343.39,394.98,342.68,395.88,341.59z"/>
<path class="st13" d="M526.67,328.25c-2.32-2.12-5.79-2.19-8.19-0.31c-2.2-0.57-4.63,0.06-6.27,1.86c-2.07,2.26-2.19,5.62-0.45,8.01
	c-1.07,2.42-0.55,5.36,1.51,7.24c0.64,0.58,1.36,1.01,2.13,1.29c0.34,0.74,0.83,1.42,1.47,2.01c2.17,1.99,5.35,2.17,7.71,0.64
	c2.31,0.79,4.97,0.2,6.72-1.72c1.53-1.67,1.99-3.95,1.42-5.98c1.59-2.54,1.2-5.93-1.1-8.03c-0.88-0.81-1.94-1.31-3.03-1.53
	C528.36,330.43,527.72,329.21,526.67,328.25z"/>
<path class="st14" d="M470.19,401.24c-4.07-1.37-8.43,0.47-10.38,4.13c-3.06,0.5-5.74,2.63-6.8,5.78
	c-1.33,3.97,0.37,8.22,3.86,10.24c0,3.61,2.27,6.98,5.89,8.2c1.12,0.38,2.26,0.51,3.37,0.43c0.83,0.73,1.82,1.32,2.94,1.69
	c3.81,1.28,7.87-0.24,9.98-3.45c3.32-0.29,6.31-2.5,7.43-5.85c0.99-2.93,0.3-6.02-1.53-8.25c0.58-4.05-1.78-8.06-5.8-9.41
	c-1.55-0.52-3.14-0.57-4.62-0.24C473.5,403.03,472.02,401.86,470.19,401.24z"/>
<path class="st13" d="M450.46,357.62c-2.32-2.12-5.79-2.19-8.19-0.31c-2.2-0.57-4.63,0.06-6.27,1.86c-2.07,2.26-2.19,5.62-0.45,8.01
	c-1.07,2.42-0.55,5.36,1.51,7.24c0.64,0.58,1.36,1.01,2.13,1.29c0.34,0.74,0.83,1.42,1.47,2.01c2.17,1.99,5.35,2.17,7.71,0.64
	c2.31,0.79,4.97,0.2,6.72-1.72c1.53-1.67,1.99-3.95,1.42-5.98c1.59-2.54,1.2-5.93-1.1-8.03c-0.88-0.81-1.94-1.31-3.03-1.53
	C452.16,359.8,451.51,358.57,450.46,357.62z"/>
</svg>
